<svg width="514" height="234" viewBox="0 0 514 234" fill="none" xmlns="http://www.w3.org/2000/svg">
<path d="M37.7675 226.455H38.7519L38.7519 231.095C38.7519 231.515 38.6688 231.874 38.5026 232.172C38.3386 232.471 38.1074 232.699 37.8091 232.856C37.5108 233.012 37.1614 233.089 36.7608 233.089C36.3922 233.089 36.0609 233.022 35.7668 232.888C35.4749 232.754 35.2437 232.559 35.0733 232.303C34.905 232.045 34.8208 231.732 34.8208 231.364H35.802C35.802 231.545 35.8435 231.701 35.9266 231.833C36.0119 231.966 36.128 232.069 36.275 232.143C36.4241 232.216 36.5946 232.252 36.7864 232.252C36.9952 232.252 37.172 232.208 37.3169 232.121C37.4639 232.032 37.5758 231.901 37.6525 231.728C37.7292 231.555 37.7675 231.344 37.7675 231.095L37.7675 226.455ZM40.7422 233H39.6939L42.0494 226.455H43.1904L45.5459 233H44.4976L42.6471 227.643H42.5959L40.7422 233ZM40.918 230.437H44.3186L44.3186 231.268H40.918L40.918 230.437ZM51.7741 226.455L51.7741 233H50.8664L47.5394 228.2H47.4786L47.4786 233H46.4911L46.4911 226.455H47.4051L50.7354 231.261H50.7961L50.7961 226.455H51.7741Z" fill="#838383"/>
<path d="M158.342 233H157.294L159.65 226.455H160.79L163.146 233H162.098L160.247 227.643H160.196L158.342 233ZM158.518 230.437H161.919L161.919 231.268H158.518L158.518 230.437ZM164.091 233L164.091 226.455H166.424C166.934 226.455 167.355 226.547 167.69 226.733C168.024 226.918 168.275 227.172 168.441 227.493C168.607 227.813 168.69 228.173 168.69 228.574C168.69 228.976 168.606 229.338 168.438 229.66C168.272 229.98 168.02 230.233 167.684 230.421C167.349 230.606 166.928 230.699 166.421 230.699H164.817L164.817 229.862H166.332C166.653 229.862 166.914 229.806 167.115 229.695C167.315 229.582 167.462 229.429 167.556 229.235C167.649 229.041 167.696 228.821 167.696 228.574C167.696 228.326 167.649 228.107 167.556 227.915C167.462 227.723 167.314 227.573 167.111 227.464C166.911 227.356 166.647 227.301 166.319 227.301H165.079L165.079 233H164.091ZM169.848 233L169.848 226.455H172.181C172.688 226.455 173.109 226.542 173.444 226.717C173.78 226.891 174.032 227.133 174.198 227.442C174.364 227.749 174.447 228.104 174.447 228.506C174.447 228.907 174.363 229.26 174.195 229.564C174.028 229.867 173.777 230.102 173.44 230.271C173.106 230.439 172.685 230.523 172.178 230.523H170.411L170.411 229.673H172.088C172.408 229.673 172.668 229.627 172.868 229.536C173.071 229.444 173.219 229.311 173.312 229.136C173.406 228.961 173.453 228.751 173.453 228.506C173.453 228.259 173.405 228.045 173.309 227.864C173.216 227.683 173.067 227.544 172.865 227.449C172.665 227.35 172.402 227.301 172.076 227.301H170.836L170.836 233H169.848ZM173.079 230.047L174.696 233H173.571L171.986 230.047H173.079Z" fill="#838383"/>
<path d="M283.922 226.455H284.907L284.907 231.095C284.907 231.515 284.824 231.874 284.657 232.172C284.493 232.471 284.262 232.699 283.964 232.856C283.666 233.012 283.316 233.089 282.916 233.089C282.547 233.089 282.216 233.022 281.922 232.888C281.63 232.754 281.399 232.559 281.228 232.303C281.06 232.045 280.976 231.732 280.976 231.364H281.957C281.957 231.545 281.998 231.701 282.081 231.833C282.167 231.966 282.283 232.069 282.43 232.143C282.579 232.216 282.749 232.252 282.941 232.252C283.15 232.252 283.327 232.208 283.472 232.121C283.619 232.032 283.731 231.901 283.807 231.728C283.884 231.555 283.922 231.344 283.922 231.095L283.922 226.455ZM290.553 226.455H291.544L291.544 230.76C291.544 231.218 291.436 231.624 291.221 231.977C291.006 232.329 290.703 232.606 290.314 232.808C289.924 233.009 289.467 233.109 288.942 233.109C288.42 233.109 287.964 233.009 287.575 232.808C287.185 232.606 286.882 232.329 286.667 231.977C286.452 231.624 286.344 231.218 286.344 230.76L286.344 226.455H287.332L287.332 230.68C287.332 230.976 287.397 231.239 287.527 231.469C287.659 231.699 287.845 231.88 288.086 232.012C288.327 232.142 288.612 232.207 288.942 232.207C289.275 232.207 289.561 232.142 289.802 232.012C290.045 231.88 290.23 231.699 290.358 231.469C290.488 231.239 290.553 230.976 290.553 230.68L290.553 226.455ZM292.98 233L292.98 226.455H293.967L293.967 232.15H296.933L296.933 233H292.98Z" fill="#838383"/>
<path d="M413.706 229.727C413.706 230.426 413.578 231.027 413.323 231.53C413.067 232.031 412.716 232.416 412.271 232.687C411.828 232.955 411.324 233.089 410.759 233.089C410.193 233.089 409.687 232.955 409.241 232.687C408.798 232.416 408.449 232.029 408.193 231.527C407.937 231.024 407.809 230.424 407.809 229.727C407.809 229.028 407.937 228.429 408.193 227.928C408.449 227.425 408.798 227.039 409.241 226.771C409.687 226.5 410.193 226.365 410.759 226.365C411.324 226.365 411.828 226.5 412.271 226.771C412.716 227.039 413.067 227.425 413.323 227.928C413.578 228.429 413.706 229.028 413.706 229.727ZM412.728 229.727C412.728 229.195 412.642 228.746 412.469 228.382C412.299 228.015 412.064 227.738 411.766 227.551C411.47 227.361 411.134 227.266 410.759 227.266C410.382 227.266 410.046 227.361 409.749 227.551C409.453 227.738 409.219 228.015 409.046 228.382C408.876 228.746 408.791 229.195 408.791 229.727C408.791 230.26 408.876 230.71 409.046 231.076C409.219 231.44 409.453 231.717 409.749 231.907C410.046 232.094 410.382 232.188 410.759 232.188C411.134 232.188 411.47 232.094 411.766 231.907C412.064 231.717 412.299 231.44 412.469 231.076C412.642 230.71 412.728 230.26 412.728 229.727ZM420.374 228.583H419.377C419.338 228.37 419.267 228.183 419.163 228.021C419.058 227.859 418.93 227.721 418.779 227.608C418.628 227.495 418.458 227.41 418.271 227.353C418.085 227.295 417.888 227.266 417.68 227.266C417.302 227.266 416.965 227.361 416.666 227.551C416.37 227.74 416.136 228.018 415.963 228.385C415.793 228.751 415.708 229.199 415.708 229.727C415.708 230.26 415.793 230.71 415.963 231.076C416.136 231.442 416.371 231.719 416.67 231.907C416.968 232.094 417.303 232.188 417.676 232.188C417.883 232.188 418.079 232.161 418.264 232.105C418.452 232.048 418.621 231.963 418.773 231.853C418.924 231.742 419.052 231.607 419.156 231.447C419.263 231.285 419.336 231.099 419.377 230.891L420.374 230.894C420.321 231.216 420.217 231.512 420.064 231.782C419.913 232.051 419.718 232.283 419.479 232.479C419.242 232.673 418.972 232.823 418.667 232.93C418.362 233.036 418.03 233.089 417.67 233.089C417.103 233.089 416.598 232.955 416.155 232.687C415.712 232.416 415.362 232.029 415.107 231.527C414.853 231.024 414.726 230.424 414.726 229.727C414.726 229.028 414.854 228.429 415.11 227.928C415.366 227.425 415.715 227.039 416.158 226.771C416.601 226.5 417.105 226.365 417.67 226.365C418.017 226.365 418.341 226.415 418.642 226.515C418.944 226.613 419.216 226.758 419.457 226.95C419.697 227.14 419.897 227.372 420.054 227.647C420.212 227.919 420.318 228.232 420.374 228.583ZM421.233 227.305L421.233 226.455H426.298L426.298 227.305H424.256L424.256 233H423.272L423.272 227.305H421.233Z" fill="#838383"/>
<path d="M75.9266 233L75.9266 226.455H79.9856L79.9856 227.305H76.9142L76.9142 229.299H79.6947L79.6947 230.146H76.9142L76.9142 233H75.9266ZM81.2001 233L81.2001 226.455H85.3038L85.3038 227.305H82.1876L82.1876 229.299H85.0896L85.0896 230.146H82.1876L82.1876 232.15H85.3421L85.3421 233H81.2001ZM86.6229 233L86.6229 226.455H89.0199C89.4844 226.455 89.869 226.531 90.1737 226.685C90.4784 226.836 90.7064 227.042 90.8576 227.301C91.0089 227.559 91.0846 227.85 91.0846 228.174C91.0846 228.447 91.0345 228.677 90.9343 228.864C90.8342 229.05 90.7 229.199 90.5316 229.312C90.3655 229.423 90.1822 229.504 89.9819 229.555L89.9819 229.619C90.1993 229.629 90.4113 229.7 90.6179 229.83C90.8267 229.957 90.9993 230.14 91.1357 230.376C91.2721 230.613 91.3402 230.9 91.3402 231.239C91.3402 231.574 91.2614 231.874 91.1037 232.14C90.9482 232.404 90.7074 232.614 90.3814 232.77C90.0554 232.923 89.6389 233 89.1318 233H86.6229ZM87.6105 232.153H89.0359C89.5089 232.153 89.8477 232.061 90.0522 231.878C90.2568 231.695 90.3591 231.466 90.3591 231.191C90.3591 230.984 90.3069 230.795 90.2025 230.622C90.0981 230.45 89.9489 230.312 89.755 230.21C89.5633 230.108 89.3353 230.056 89.0711 230.056H87.6105L87.6105 232.153ZM87.6105 229.286H88.9336C89.1552 229.286 89.3544 229.244 89.5313 229.158C89.7103 229.073 89.852 228.954 89.9564 228.8C90.0629 228.645 90.1162 228.462 90.1162 228.251C90.1162 227.98 90.0214 227.753 89.8317 227.57C89.6421 227.387 89.3513 227.295 88.9592 227.295H87.6105L87.6105 229.286Z" fill="#838383"/>
<path d="M198.283 226.455H199.482L201.565 231.543H201.642L203.726 226.455H204.924L204.924 233H203.985L203.985 228.263H203.924L201.994 232.99H201.214L199.283 228.26H199.223L199.223 233H198.283L198.283 226.455ZM206.913 233H205.865L208.22 226.455H209.361L211.717 233H210.668L208.818 227.643H208.767L206.913 233ZM207.089 230.437H210.489L210.489 231.268H207.089L207.089 230.437ZM211.489 226.455H212.611L214.321 229.43H214.391L216.101 226.455H217.223L214.848 230.43L214.848 233H213.864L213.864 230.43L211.489 226.455Z" fill="#838383"/>
<path d="M322.933 233H321.884L324.24 226.455H325.381L327.736 233H326.688L324.837 227.643H324.786L322.933 233ZM323.108 230.437H326.509L326.509 231.268H323.108L323.108 230.437ZM332.891 226.455H333.881L333.881 230.76C333.881 231.218 333.774 231.624 333.559 231.977C333.343 232.329 333.041 232.606 332.651 232.808C332.261 233.009 331.804 233.109 331.28 233.109C330.758 233.109 330.302 233.009 329.912 232.808C329.522 232.606 329.22 232.329 329.004 231.977C328.789 231.624 328.682 231.218 328.682 230.76L328.682 226.455H329.669L329.669 230.68C329.669 230.976 329.734 231.239 329.864 231.469C329.996 231.699 330.183 231.88 330.423 232.012C330.664 232.142 330.95 232.207 331.28 232.207C331.612 232.207 331.899 232.142 332.14 232.012C332.383 231.88 332.568 231.699 332.696 231.469C332.826 231.239 332.891 230.976 332.891 230.68L332.891 226.455ZM339.747 228.522C339.685 228.328 339.602 228.155 339.498 228.001C339.395 227.846 339.273 227.714 339.13 227.605C338.987 227.494 338.824 227.41 338.641 227.353C338.46 227.295 338.261 227.266 338.043 227.266C337.675 227.266 337.342 227.361 337.046 227.551C336.75 227.74 336.516 228.018 336.343 228.385C336.173 228.749 336.087 229.196 336.087 229.724C336.087 230.255 336.174 230.703 336.346 231.07C336.519 231.436 336.755 231.714 337.056 231.904C337.356 232.093 337.698 232.188 338.082 232.188C338.438 232.188 338.748 232.116 339.012 231.971C339.278 231.826 339.484 231.621 339.629 231.357C339.776 231.091 339.849 230.778 339.849 230.418L340.105 230.466H338.232L338.232 229.651H340.805L340.805 230.395C340.805 230.945 340.688 231.422 340.453 231.827C340.221 232.23 339.899 232.541 339.488 232.76C339.079 232.98 338.61 233.089 338.082 233.089C337.489 233.089 336.97 232.953 336.522 232.68C336.077 232.408 335.73 232.021 335.48 231.52C335.231 231.017 335.106 230.421 335.106 229.73C335.106 229.208 335.179 228.74 335.324 228.324C335.469 227.909 335.672 227.556 335.934 227.266C336.198 226.974 336.508 226.752 336.864 226.598C337.222 226.443 337.613 226.365 338.037 226.365C338.391 226.365 338.72 226.417 339.025 226.522C339.331 226.626 339.604 226.774 339.843 226.966C340.084 227.158 340.283 227.386 340.44 227.65C340.598 227.912 340.705 228.203 340.76 228.522H339.747Z" fill="#838383"/>
<path d="M455.694 226.455L455.694 233H454.786L451.459 228.2H451.398L451.398 233H450.411L450.411 226.455H451.325L454.655 231.261H454.716L454.716 226.455H455.694ZM462.82 229.727C462.82 230.426 462.692 231.027 462.436 231.53C462.181 232.031 461.83 232.416 461.385 232.687C460.942 232.955 460.438 233.089 459.873 233.089C459.306 233.089 458.8 232.955 458.355 232.687C457.912 232.416 457.562 232.029 457.307 231.527C457.051 231.024 456.923 230.424 456.923 229.727C456.923 229.028 457.051 228.429 457.307 227.928C457.562 227.425 457.912 227.039 458.355 226.771C458.8 226.5 459.306 226.365 459.873 226.365C460.438 226.365 460.942 226.5 461.385 226.771C461.83 227.039 462.181 227.425 462.436 227.928C462.692 228.429 462.82 229.028 462.82 229.727ZM461.842 229.727C461.842 229.195 461.756 228.746 461.583 228.382C461.413 228.015 461.178 227.738 460.88 227.551C460.584 227.361 460.248 227.266 459.873 227.266C459.496 227.266 459.159 227.361 458.863 227.551C458.567 227.738 458.333 228.015 458.16 228.382C457.99 228.746 457.904 229.195 457.904 229.727C457.904 230.26 457.99 230.71 458.16 231.076C458.333 231.44 458.567 231.717 458.863 231.907C459.159 232.094 459.496 232.188 459.873 232.188C460.248 232.188 460.584 232.094 460.88 231.907C461.178 231.717 461.413 231.44 461.583 231.076C461.756 230.71 461.842 230.26 461.842 229.727ZM464.298 226.455L466.12 231.786H466.193L468.015 226.455H469.082L466.727 233H465.586L463.231 226.455H464.298Z" fill="#838383"/>
<path d="M114.129 226.455H115.328L117.412 231.543H117.488L119.572 226.455H120.771L120.771 233H119.831L119.831 228.263H119.77L117.84 232.99H117.06L115.13 228.26H115.069L115.069 233H114.129L114.129 226.455ZM122.759 233H121.711L124.066 226.455H125.207L127.563 233H126.515L124.664 227.643H124.613L122.759 233ZM122.935 230.437H126.336L126.336 231.268H122.935L122.935 230.437ZM128.508 233L128.508 226.455H130.841C131.348 226.455 131.769 226.542 132.104 226.717C132.44 226.891 132.692 227.133 132.858 227.442C133.024 227.749 133.107 228.104 133.107 228.506C133.107 228.907 133.023 229.26 132.855 229.564C132.689 229.867 132.437 230.102 132.1 230.271C131.766 230.439 131.345 230.523 130.838 230.523H129.071L129.071 229.673H130.749C131.068 229.673 131.328 229.627 131.528 229.536C131.731 229.444 131.879 229.311 131.973 229.136C132.066 228.961 132.113 228.751 132.113 228.506C132.113 228.259 132.065 228.045 131.969 227.864C131.876 227.683 131.728 227.544 131.525 227.449C131.325 227.35 131.062 227.301 130.736 227.301H129.496L129.496 233H128.508ZM131.739 230.047L133.357 233H132.232L130.646 230.047H131.739Z" fill="#838383"/>
<path d="M244.101 226.455H245.085L245.085 231.095C245.085 231.515 245.002 231.874 244.836 232.172C244.672 232.471 244.44 232.699 244.142 232.856C243.844 233.012 243.494 233.089 243.094 233.089C242.725 233.089 242.394 233.022 242.1 232.888C241.808 232.754 241.577 232.559 241.406 232.303C241.238 232.045 241.154 231.732 241.154 231.364H242.135C242.135 231.545 242.177 231.701 242.26 231.833C242.345 231.966 242.461 232.069 242.608 232.143C242.757 232.216 242.928 232.252 243.119 232.252C243.328 232.252 243.505 232.208 243.65 232.121C243.797 232.032 243.909 231.901 243.985 231.728C244.062 231.555 244.101 231.344 244.101 231.095L244.101 226.455ZM250.731 226.455H251.722L251.722 230.76C251.722 231.218 251.615 231.624 251.399 231.977C251.184 232.329 250.882 232.606 250.492 232.808C250.102 233.009 249.645 233.109 249.121 233.109C248.599 233.109 248.143 233.009 247.753 232.808C247.363 232.606 247.06 232.329 246.845 231.977C246.63 231.624 246.522 231.218 246.522 230.76L246.522 226.455H247.51L247.51 230.68C247.51 230.976 247.575 231.239 247.705 231.469C247.837 231.699 248.023 231.88 248.264 232.012C248.505 232.142 248.79 232.207 249.121 232.207C249.453 232.207 249.74 232.142 249.98 232.012C250.223 231.88 250.409 231.699 250.537 231.469C250.667 231.239 250.731 230.976 250.731 230.68L250.731 226.455ZM258.441 226.455L258.441 233H257.533L254.206 228.2H254.146L254.146 233H253.158L253.158 226.455H254.072L257.402 231.261H257.463L257.463 226.455H258.441Z" fill="#838383"/>
<path d="M369.303 228.174C369.269 227.871 369.129 227.637 368.881 227.471C368.634 227.303 368.323 227.218 367.948 227.218C367.68 227.218 367.447 227.261 367.251 227.346C367.055 227.429 366.903 227.544 366.794 227.691C366.688 227.836 366.635 228.001 366.635 228.187C366.635 228.342 366.671 228.477 366.743 228.589C366.818 228.702 366.915 228.797 367.034 228.874C367.155 228.949 367.285 229.011 367.424 229.062C367.562 229.112 367.696 229.152 367.823 229.184L368.463 229.35C368.671 229.401 368.886 229.471 369.105 229.558C369.325 229.645 369.528 229.76 369.716 229.903C369.903 230.046 370.054 230.223 370.169 230.434C370.287 230.645 370.345 230.897 370.345 231.191C370.345 231.562 370.249 231.891 370.057 232.179C369.868 232.466 369.592 232.693 369.23 232.859C368.87 233.026 368.434 233.109 367.923 233.109C367.432 233.109 367.008 233.031 366.651 232.875C366.293 232.72 366.012 232.499 365.81 232.214C365.608 231.926 365.496 231.585 365.474 231.191H366.465C366.484 231.428 366.561 231.625 366.695 231.782C366.832 231.938 367.005 232.054 367.216 232.131C367.429 232.205 367.663 232.243 367.916 232.243C368.195 232.243 368.443 232.199 368.661 232.112C368.88 232.022 369.053 231.898 369.179 231.741C369.304 231.581 369.367 231.395 369.367 231.181C369.367 230.988 369.312 230.829 369.201 230.705C369.092 230.582 368.944 230.479 368.757 230.398C368.571 230.317 368.361 230.246 368.127 230.184L367.354 229.973C366.83 229.831 366.414 229.621 366.107 229.344C365.803 229.067 365.65 228.7 365.65 228.244C365.65 227.867 365.752 227.538 365.957 227.257C366.162 226.975 366.439 226.757 366.788 226.602C367.137 226.444 367.532 226.365 367.97 226.365C368.414 226.365 368.805 226.443 369.143 226.598C369.484 226.754 369.753 226.968 369.949 227.241C370.145 227.511 370.247 227.822 370.256 228.174H369.303ZM371.525 233L371.525 226.455H375.629L375.629 227.305H372.513L372.513 229.299H375.415L375.415 230.146H372.513L372.513 232.15H375.667L375.667 233H371.525ZM376.948 233L376.948 226.455H379.281C379.79 226.455 380.212 226.547 380.547 226.733C380.881 226.918 381.132 227.172 381.298 227.493C381.464 227.813 381.547 228.173 381.547 228.574C381.547 228.976 381.463 229.338 381.295 229.66C381.129 229.98 380.877 230.233 380.54 230.421C380.206 230.606 379.785 230.699 379.278 230.699H377.674L377.674 229.862H379.189C379.51 229.862 379.771 229.806 379.972 229.695C380.172 229.582 380.319 229.429 380.413 229.235C380.506 229.041 380.553 228.821 380.553 228.574C380.553 228.326 380.506 228.107 380.413 227.915C380.319 227.723 380.171 227.573 379.968 227.464C379.768 227.356 379.504 227.301 379.176 227.301H377.936L377.936 233H376.948Z" fill="#838383"/>
<path d="M494.07 233H491.951L491.951 226.455H494.137C494.778 226.455 495.329 226.586 495.789 226.848C496.25 227.108 496.602 227.482 496.847 227.969C497.095 228.455 497.218 229.038 497.218 229.718C497.218 230.4 497.093 230.985 496.844 231.475C496.597 231.966 496.239 232.343 495.77 232.607C495.302 232.869 494.735 233 494.07 233ZM492.939 232.137H494.016C494.514 232.137 494.929 232.043 495.259 231.856C495.589 231.666 495.836 231.392 496 231.034C496.164 230.674 496.246 230.235 496.246 229.718C496.246 229.204 496.164 228.768 496 228.411C495.838 228.053 495.597 227.781 495.275 227.596C494.953 227.41 494.554 227.317 494.076 227.317H492.939L492.939 232.137ZM498.446 233L498.446 226.455H502.55L502.55 227.305H499.434L499.434 229.299H502.336L502.336 230.146H499.434L499.434 232.15H502.588L502.588 233H498.446ZM509.305 228.583H508.308C508.27 228.37 508.199 228.183 508.094 228.021C507.99 227.859 507.862 227.721 507.711 227.608C507.559 227.495 507.39 227.41 507.202 227.353C507.017 227.295 506.82 227.266 506.611 227.266C506.234 227.266 505.896 227.361 505.598 227.551C505.302 227.74 505.068 228.018 504.895 228.385C504.724 228.751 504.639 229.199 504.639 229.727C504.639 230.26 504.724 230.71 504.895 231.076C505.068 231.442 505.303 231.719 505.601 231.907C505.9 232.094 506.235 232.188 506.608 232.188C506.815 232.188 507.011 232.161 507.196 232.105C507.384 232.048 507.553 231.963 507.704 231.853C507.856 231.742 507.983 231.607 508.088 231.447C508.194 231.285 508.268 231.099 508.308 230.891L509.305 230.894C509.252 231.216 509.149 231.512 508.995 231.782C508.844 232.051 508.649 232.283 508.411 232.479C508.174 232.673 507.903 232.823 507.599 232.93C507.294 233.036 506.962 233.089 506.602 233.089C506.035 233.089 505.53 232.955 505.087 232.687C504.644 232.416 504.294 232.029 504.038 231.527C503.785 231.024 503.658 230.424 503.658 229.727C503.658 229.028 503.786 228.429 504.042 227.928C504.297 227.425 504.647 227.039 505.09 226.771C505.533 226.5 506.037 226.365 506.602 226.365C506.949 226.365 507.273 226.415 507.573 226.515C507.876 226.613 508.147 226.758 508.388 226.95C508.629 227.14 508.828 227.372 508.986 227.647C509.144 227.919 509.25 228.232 509.305 228.583Z" fill="#838383"/>
<path d="M40 15C40 12.2386 42.2386 10 45 10C47.7614 10 50 12.2386 50 15L50 204C50 206.761 47.7614 209 45 209C42.2386 209 40 206.761 40 204L40 15Z" fill="#F2F7FF"/>
<g filter="url(#filter0_d_2_2522)">
<path d="M40 155C40 152.239 42.2386 150 45 150C47.7614 150 50 152.239 50 155L50 205C50 207.761 47.7614 210 45 210C42.2386 210 40 207.761 40 205L40 155Z" fill="url(#paint0_linear_2_2522)" fill-opacity="0.8" shape-rendering="crispEdges"/>
</g>
<path d="M82 15C82 12.2386 84.2386 10 87 10C89.7614 10 92 12.2386 92 15L92 204C92 206.761 89.7614 209 87 209C84.2386 209 82 206.761 82 204L82 15Z" fill="#F2F7FF"/>
<g filter="url(#filter1_d_2_2522)">
<path d="M82 139C82 136.239 84.2386 134 87 134C89.7614 134 92 136.239 92 139L92 205C92 207.761 89.7614 210 87 210C84.2386 210 82 207.761 82 205L82 139Z" fill="url(#paint1_linear_2_2522)" fill-opacity="0.8" shape-rendering="crispEdges"/>
</g>
<path d="M123 15C123 12.2386 125.239 10 128 10C130.761 10 133 12.2386 133 15L133 204C133 206.761 130.761 209 128 209C125.239 209 123 206.761 123 204L123 15Z" fill="#F2F7FF"/>
<g filter="url(#filter2_d_2_2522)">
<path d="M123 139C123 136.239 125.239 134 128 134C130.761 134 133 136.239 133 139L133 205C133 207.761 130.761 210 128 210C125.239 210 123 207.761 123 205L123 139Z" fill="url(#paint2_linear_2_2522)" fill-opacity="0.8" shape-rendering="crispEdges"/>
</g>
<path d="M163 15C163 12.2386 165.239 10 168 10C170.761 10 173 12.2386 173 15L173 204C173 206.761 170.761 209 168 209C165.239 209 163 206.761 163 204L163 15Z" fill="#F2F7FF"/>
<g filter="url(#filter3_d_2_2522)">
<path d="M163 93C163 90.2386 165.239 88 168 88C170.761 88 173 90.2386 173 93L173 205C173 207.761 170.761 210 168 210C165.239 210 163 207.761 163 205L163 93Z" fill="url(#paint3_linear_2_2522)" fill-opacity="0.8" shape-rendering="crispEdges"/>
</g>
<path d="M204 15C204 12.2386 206.239 10 209 10C211.761 10 214 12.2386 214 15L214 204C214 206.761 211.761 209 209 209C206.239 209 204 206.761 204 204L204 15Z" fill="#F2F7FF"/>
<g filter="url(#filter4_d_2_2522)">
<path d="M204 77C204 74.2386 206.239 72 209 72C211.761 72 214 74.2386 214 77L214 205C214 207.761 211.761 210 209 210C206.239 210 204 207.761 204 205L204 77Z" fill="url(#paint4_linear_2_2522)" fill-opacity="0.8" shape-rendering="crispEdges"/>
</g>
<path d="M248 15C248 12.2386 250.239 10 253 10C255.761 10 258 12.2386 258 15L258 204C258 206.761 255.761 209 253 209C250.239 209 248 206.761 248 204L248 15Z" fill="#F2F7FF"/>
<g filter="url(#filter5_d_2_2522)">
<path d="M248 109C248 106.239 250.239 104 253 104C255.761 104 258 106.239 258 109L258 205C258 207.761 255.761 210 253 210C250.239 210 248 207.761 248 205L248 109Z" fill="url(#paint5_linear_2_2522)" fill-opacity="0.8" shape-rendering="crispEdges"/>
</g>
<path d="M289 15C289 12.2386 291.239 10 294 10C296.761 10 299 12.2386 299 15L299 204C299 206.761 296.761 209 294 209C291.239 209 289 206.761 289 204L289 15Z" fill="#F2F7FF"/>
<g filter="url(#filter6_d_2_2522)">
<path d="M287.305 92.5697C287.286 89.8083 289.508 87.541 292.27 87.5055C295.031 87.47 297.285 89.6797 297.304 92.441L298.095 204.871C298.115 207.633 295.892 209.9 293.131 209.936C290.369 209.971 288.115 207.761 288.096 205L287.305 92.5697Z" fill="url(#paint6_linear_2_2522)" fill-opacity="0.8" shape-rendering="crispEdges"/>
</g>
<path d="M329 15C329 12.2386 331.239 10 334 10C336.761 10 339 12.2386 339 15L339 204C339 206.761 336.761 209 334 209C331.239 209 329 206.761 329 204L329 15Z" fill="#F2F7FF"/>
<g filter="url(#filter7_d_2_2522)">
<path d="M329 155C329 152.239 331.239 150 334 150C336.761 150 339 152.239 339 155L339 205C339 207.761 336.761 210 334 210C331.239 210 329 207.761 329 205L329 155Z" fill="url(#paint7_linear_2_2522)" fill-opacity="0.8" shape-rendering="crispEdges"/>
</g>
<path d="M370 15C370 12.2386 372.239 10 375 10C377.761 10 380 12.2386 380 15L380 204C380 206.761 377.761 209 375 209C372.239 209 370 206.761 370 204L370 15Z" fill="#F2F7FF"/>
<g filter="url(#filter8_d_2_2522)">
<path d="M370 77C370 74.2386 372.239 72 375 72C377.761 72 380 74.2386 380 77L380 205C380 207.761 377.761 210 375 210C372.239 210 370 207.761 370 205L370 77Z" fill="url(#paint8_linear_2_2522)" fill-opacity="0.8" shape-rendering="crispEdges"/>
</g>
<path d="M412 15C412 12.2386 414.239 10 417 10C419.761 10 422 12.2386 422 15L422 204C422 206.761 419.761 209 417 209C414.239 209 412 206.761 412 204L412 15Z" fill="#F2F7FF"/>
<g filter="url(#filter9_d_2_2522)">
<path d="M412 49C412 46.2386 414.239 44 417 44C419.761 44 422 46.2386 422 49L422 205C422 207.761 419.761 210 417 210C414.239 210 412 207.761 412 205L412 49Z" fill="url(#paint9_linear_2_2522)" fill-opacity="0.8" shape-rendering="crispEdges"/>
</g>
<path d="M452 15C452 12.2386 454.239 10 457 10C459.761 10 462 12.2386 462 15L462 204C462 206.761 459.761 209 457 209C454.239 209 452 206.761 452 204L452 15Z" fill="#F2F7FF"/>
<g filter="url(#filter10_d_2_2522)">
<path d="M452 33C452 30.2386 454.239 28 457 28C459.761 28 462 30.2386 462 33L462 205C462 207.761 459.761 210 457 210C454.239 210 452 207.761 452 205L452 33Z" fill="url(#paint10_linear_2_2522)" fill-opacity="0.8" shape-rendering="crispEdges"/>
</g>
<path d="M494 15C494 12.2386 496.239 10 499 10C501.761 10 504 12.2386 504 15L504 204C504 206.761 501.761 209 499 209C496.239 209 494 206.761 494 204L494 15Z" fill="#F2F7FF"/>
<g filter="url(#filter11_d_2_2522)">
<path d="M494 15C494 12.2386 496.239 10 499 10C501.761 10 504 12.2386 504 15L504 205C504 207.761 501.761 210 499 210C496.239 210 494 207.761 494 205L494 15Z" fill="url(#paint11_linear_2_2522)" fill-opacity="0.8" shape-rendering="crispEdges"/>
</g>
<g opacity="0.5">
<path d="M4.14653 17.6849V16.664L7.15398 11.9123H8.00533V13.3658H7.48621L5.46164 16.574V16.6293H9.6596V17.6849H4.14653ZM7.52774 19V17.3734L7.54159 16.9166V11.9123H8.75287V19H7.52774ZM13.3852 19.135C12.8153 19.135 12.3262 18.9908 11.9178 18.7024C11.5117 18.4117 11.1991 17.9929 10.9799 17.4461C10.763 16.897 10.6546 16.236 10.6546 15.4631C10.6569 14.6901 10.7665 14.0326 10.9834 13.4904C11.2025 12.9459 11.5152 12.5306 11.9212 12.2445C12.3296 11.9584 12.8176 11.8154 13.3852 11.8154C13.9527 11.8154 14.4407 11.9584 14.8491 12.2445C15.2575 12.5306 15.5701 12.9459 15.787 13.4904C16.0061 14.0349 16.1157 14.6924 16.1157 15.4631C16.1157 16.2383 16.0061 16.9004 15.787 17.4496C15.5701 17.9964 15.2575 18.414 14.8491 18.7024C14.443 18.9908 13.955 19.135 13.3852 19.135ZM13.3852 18.0517C13.8281 18.0517 14.1777 17.8337 14.4338 17.3976C14.6922 16.9593 14.8214 16.3144 14.8214 15.4631C14.8214 14.9001 14.7626 14.4271 14.6449 14.0441C14.5272 13.6611 14.3611 13.3727 14.1465 13.1789C13.932 12.9828 13.6782 12.8848 13.3852 12.8848C12.9445 12.8848 12.5961 13.1039 12.34 13.5423C12.0839 13.9784 11.9547 14.6186 11.9524 15.4631C11.9501 16.0283 12.0066 16.5036 12.122 16.8889C12.2396 17.2742 12.4058 17.5649 12.6203 17.761C12.8349 17.9548 13.0898 18.0517 13.3852 18.0517ZM19.8854 19.135C19.3155 19.135 18.8264 18.9908 18.418 18.7024C18.012 18.4117 17.6993 17.9929 17.4802 17.4461C17.2633 16.897 17.1548 16.236 17.1548 15.4631C17.1572 14.6901 17.2667 14.0326 17.4836 13.4904C17.7028 12.9459 18.0154 12.5306 18.4215 12.2445C18.8299 11.9584 19.3178 11.8154 19.8854 11.8154C20.453 11.8154 20.941 11.9584 21.3493 12.2445C21.7577 12.5306 22.0703 12.9459 22.2872 13.4904C22.5064 14.0349 22.616 14.6924 22.616 15.4631C22.616 16.2383 22.5064 16.9004 22.2872 17.4496C22.0703 17.9964 21.7577 18.414 21.3493 18.7024C20.9433 18.9908 20.4553 19.135 19.8854 19.135ZM19.8854 18.0517C20.3284 18.0517 20.6779 17.8337 20.934 17.3976C21.1925 16.9593 21.3217 16.3144 21.3217 15.4631C21.3217 14.9001 21.2628 14.4271 21.1452 14.0441C21.0275 13.6611 20.8614 13.3727 20.6468 13.1789C20.4322 12.9828 20.1784 12.8848 19.8854 12.8848C19.4447 12.8848 19.0964 13.1039 18.8403 13.5423C18.5842 13.9784 18.455 14.6186 18.4526 15.4631C18.4503 16.0283 18.5069 16.5036 18.6222 16.8889C18.7399 17.2742 18.906 17.5649 19.1206 17.761C19.3352 17.9548 19.5901 18.0517 19.8854 18.0517Z" fill="black"/>
<path d="M6.96103 64.7829C6.46268 64.7829 6.01969 64.6976 5.63208 64.5268C5.24678 64.3561 4.94223 64.1185 4.71843 63.8139C4.49463 63.5094 4.37581 63.1575 4.36197 62.7584H5.66323C5.67477 62.9499 5.73822 63.1171 5.85358 63.2602C5.96894 63.4009 6.12237 63.5105 6.31386 63.589C6.50536 63.6674 6.71993 63.7066 6.95757 63.7066C7.21137 63.7066 7.43632 63.6628 7.63243 63.5751C7.82854 63.4851 7.98197 63.3605 8.09272 63.2013C8.20346 63.0422 8.25768 62.8587 8.25538 62.6511C8.25768 62.4365 8.20231 62.2473 8.08926 62.0835C7.9762 61.9197 7.81239 61.7916 7.59782 61.6994C7.38556 61.6071 7.12946 61.5609 6.82952 61.5609H6.20312V60.5711H6.82952C7.07639 60.5711 7.29212 60.5285 7.47669 60.4431C7.66358 60.3577 7.81009 60.2377 7.91622 60.0832C8.02235 59.9263 8.07426 59.7452 8.07195 59.5398C8.07426 59.3391 8.02927 59.1649 7.93698 59.0172C7.847 58.8673 7.71895 58.7507 7.55283 58.6677C7.38902 58.5846 7.19637 58.5431 6.97488 58.5431C6.758 58.5431 6.55727 58.5823 6.3727 58.6608C6.18812 58.7392 6.03931 58.8511 5.92625 58.9965C5.8132 59.1395 5.75321 59.3102 5.74629 59.5087H4.51078C4.52001 59.1118 4.63422 58.7634 4.8534 58.4635C5.07489 58.1613 5.37022 57.9259 5.73937 57.7575C6.10852 57.5868 6.52267 57.5014 6.9818 57.5014C7.45478 57.5014 7.86546 57.5902 8.21385 57.7679C8.56454 57.9432 8.83564 58.1797 9.02714 58.4773C9.21863 58.775 9.31438 59.1038 9.31438 59.4637C9.31669 59.8628 9.19902 60.1974 8.96138 60.4673C8.72605 60.7373 8.41688 60.9138 8.03388 60.9968V61.0522C8.53224 61.1214 8.91408 61.306 9.17941 61.6059C9.44705 61.9035 9.57971 62.2739 9.5774 62.7168C9.5774 63.1137 9.46435 63.469 9.23825 63.7828C9.01445 64.0942 8.70528 64.3388 8.31075 64.5165C7.91852 64.6941 7.46862 64.7829 6.96103 64.7829ZM13.3852 64.821C12.8153 64.821 12.3262 64.6768 11.9178 64.3884C11.5117 64.0977 11.1991 63.6789 10.9799 63.1321C10.763 62.583 10.6546 61.922 10.6546 61.1491C10.6569 60.3762 10.7665 59.7186 10.9834 59.1764C11.2025 58.6319 11.5152 58.2166 11.9212 57.9305C12.3296 57.6444 12.8176 57.5014 13.3852 57.5014C13.9527 57.5014 14.4407 57.6444 14.8491 57.9305C15.2575 58.2166 15.5701 58.6319 15.787 59.1764C16.0061 59.7209 16.1157 60.3785 16.1157 61.1491C16.1157 61.9243 16.0061 62.5865 15.787 63.1356C15.5701 63.6824 15.2575 64.1 14.8491 64.3884C14.443 64.6768 13.955 64.821 13.3852 64.821ZM13.3852 63.7378C13.8281 63.7378 14.1777 63.5197 14.4338 63.0837C14.6922 62.6453 14.8214 62.0004 14.8214 61.1491C14.8214 60.5861 14.7626 60.1132 14.6449 59.7302C14.5272 59.3472 14.3611 59.0588 14.1465 58.865C13.932 58.6688 13.6782 58.5708 13.3852 58.5708C12.9445 58.5708 12.5961 58.79 12.34 59.2283C12.0839 59.6644 11.9547 60.3047 11.9524 61.1491C11.9501 61.7144 12.0066 62.1896 12.122 62.5749C12.2396 62.9602 12.4057 63.251 12.6203 63.4471C12.8349 63.6409 13.0898 63.7378 13.3852 63.7378ZM19.8854 64.821C19.3155 64.821 18.8264 64.6768 18.418 64.3884C18.012 64.0977 17.6993 63.6789 17.4802 63.1321C17.2633 62.583 17.1548 61.922 17.1548 61.1491C17.1571 60.3762 17.2667 59.7186 17.4836 59.1764C17.7028 58.6319 18.0154 58.2166 18.4215 57.9305C18.8299 57.6444 19.3178 57.5014 19.8854 57.5014C20.453 57.5014 20.941 57.6444 21.3493 57.9305C21.7577 58.2166 22.0703 58.6319 22.2872 59.1764C22.5064 59.7209 22.616 60.3785 22.616 61.1491C22.616 61.9243 22.5064 62.5865 22.2872 63.1356C22.0703 63.6824 21.7577 64.1 21.3493 64.3884C20.9433 64.6768 20.4553 64.821 19.8854 64.821ZM19.8854 63.7378C20.3284 63.7378 20.6779 63.5197 20.934 63.0837C21.1925 62.6453 21.3217 62.0004 21.3217 61.1491C21.3217 60.5861 21.2628 60.1132 21.1452 59.7302C21.0275 59.3472 20.8614 59.0588 20.6468 58.865C20.4322 58.6688 20.1784 58.5708 19.8854 58.5708C19.4447 58.5708 19.0964 58.79 18.8403 59.2283C18.5842 59.6644 18.455 60.3047 18.4526 61.1491C18.4503 61.7144 18.5069 62.1896 18.6222 62.5749C18.7399 62.9602 18.906 63.251 19.1206 63.4471C19.3352 63.6409 19.5901 63.7378 19.8854 63.7378Z" fill="black"/>
<path d="M4.71238 110.373V109.445L7.17301 107.033C7.40834 106.795 7.60446 106.584 7.76135 106.4C7.91824 106.215 8.0359 106.036 8.11435 105.863C8.19279 105.69 8.23202 105.506 8.23202 105.309C8.23202 105.086 8.18126 104.894 8.07974 104.735C7.97822 104.573 7.83864 104.449 7.66098 104.361C7.48333 104.273 7.28145 104.23 7.05534 104.23C6.82231 104.23 6.61813 104.278 6.44278 104.375C6.26743 104.47 6.13131 104.605 6.0344 104.78C5.93981 104.955 5.89251 105.164 5.89251 105.406H4.67085C4.67085 104.956 4.77352 104.565 4.97886 104.233C5.1842 103.901 5.46683 103.644 5.82676 103.461C6.18899 103.279 6.60428 103.188 7.07265 103.188C7.54793 103.188 7.96553 103.277 8.32546 103.454C8.68538 103.632 8.96455 103.875 9.16297 104.185C9.3637 104.494 9.46406 104.847 9.46406 105.244C9.46406 105.509 9.41331 105.77 9.31179 106.026C9.21027 106.282 9.03146 106.566 8.77536 106.877C8.52157 107.189 8.16511 107.566 7.70597 108.009L6.48431 109.251V109.3H9.57135V110.373H4.71238ZM13.3852 110.508C12.8153 110.508 12.3262 110.363 11.9178 110.075C11.5117 109.784 11.1991 109.365 10.9799 108.819C10.763 108.27 10.6546 107.609 10.6546 106.836C10.6569 106.063 10.7665 105.405 10.9834 104.863C11.2025 104.318 11.5152 103.903 11.9212 103.617C12.3296 103.331 12.8176 103.188 13.3852 103.188C13.9527 103.188 14.4407 103.331 14.8491 103.617C15.2575 103.903 15.5701 104.318 15.787 104.863C16.0061 105.407 16.1157 106.065 16.1157 106.836C16.1157 107.611 16.0061 108.273 15.787 108.822C15.5701 109.369 15.2575 109.787 14.8491 110.075C14.443 110.363 13.955 110.508 13.3852 110.508ZM13.3852 109.424C13.8281 109.424 14.1777 109.206 14.4338 108.77C14.6922 108.332 14.8214 107.687 14.8214 106.836C14.8214 106.273 14.7626 105.8 14.6449 105.417C14.5272 105.034 14.3611 104.745 14.1465 104.551C13.932 104.355 13.6782 104.257 13.3852 104.257C12.9445 104.257 12.5961 104.476 12.34 104.915C12.0839 105.351 11.9547 105.991 11.9524 106.836C11.9501 107.401 12.0066 107.876 12.122 108.261C12.2396 108.647 12.4057 108.937 12.6203 109.134C12.8349 109.327 13.0898 109.424 13.3852 109.424ZM19.8854 110.508C19.3155 110.508 18.8264 110.363 18.418 110.075C18.012 109.784 17.6993 109.365 17.4802 108.819C17.2633 108.27 17.1548 107.609 17.1548 106.836C17.1572 106.063 17.2667 105.405 17.4836 104.863C17.7028 104.318 18.0154 103.903 18.4215 103.617C18.8299 103.331 19.3178 103.188 19.8854 103.188C20.453 103.188 20.941 103.331 21.3493 103.617C21.7577 103.903 22.0703 104.318 22.2872 104.863C22.5064 105.407 22.616 106.065 22.616 106.836C22.616 107.611 22.5064 108.273 22.2872 108.822C22.0703 109.369 21.7577 109.787 21.3493 110.075C20.9433 110.363 20.4553 110.508 19.8854 110.508ZM19.8854 109.424C20.3284 109.424 20.6779 109.206 20.934 108.77C21.1925 108.332 21.3217 107.687 21.3217 106.836C21.3217 106.273 21.2628 105.8 21.1452 105.417C21.0275 105.034 20.8614 104.745 20.6468 104.551C20.4322 104.355 20.1784 104.257 19.8854 104.257C19.4447 104.257 19.0964 104.476 18.8403 104.915C18.5842 105.351 18.455 105.991 18.4526 106.836C18.4503 107.401 18.5069 107.876 18.6222 108.261C18.7399 108.647 18.906 108.937 19.1206 109.134C19.3352 109.327 19.5901 109.424 19.8854 109.424Z" fill="black"/>
<path d="M8.96571 148.97V156.058H7.68175V150.22H7.64022L5.98249 151.279V150.102L7.74404 148.97H8.96571ZM13.3852 156.193C12.8153 156.193 12.3262 156.049 11.9178 155.76C11.5117 155.47 11.1991 155.051 10.9799 154.504C10.763 153.955 10.6546 153.294 10.6546 152.521C10.6569 151.748 10.7665 151.091 10.9834 150.548C11.2025 150.004 11.5152 149.589 11.9212 149.303C12.3296 149.017 12.8176 148.873 13.3852 148.873C13.9527 148.873 14.4407 149.017 14.8491 149.303C15.2575 149.589 15.5701 150.004 15.787 150.548C16.0061 151.093 16.1157 151.751 16.1157 152.521C16.1157 153.296 16.0061 153.959 15.787 154.508C15.5701 155.054 15.2575 155.472 14.8491 155.76C14.443 156.049 13.955 156.193 13.3852 156.193ZM13.3852 155.11C13.8281 155.11 14.1777 154.892 14.4338 154.456C14.6922 154.017 14.8214 153.373 14.8214 152.521C14.8214 151.958 14.7626 151.485 14.6449 151.102C14.5272 150.719 14.3611 150.431 14.1465 150.237C13.932 150.041 13.6782 149.943 13.3852 149.943C12.9445 149.943 12.5961 150.162 12.34 150.6C12.0839 151.036 11.9547 151.677 11.9524 152.521C11.9501 153.086 12.0066 153.562 12.122 153.947C12.2396 154.332 12.4057 154.623 12.6203 154.819C12.8349 155.013 13.0898 155.11 13.3852 155.11ZM19.8854 156.193C19.3155 156.193 18.8264 156.049 18.418 155.76C18.012 155.47 17.6993 155.051 17.4802 154.504C17.2633 153.955 17.1548 153.294 17.1548 152.521C17.1572 151.748 17.2667 151.091 17.4836 150.548C17.7028 150.004 18.0154 149.589 18.4215 149.303C18.8299 149.017 19.3178 148.873 19.8854 148.873C20.453 148.873 20.941 149.017 21.3493 149.303C21.7577 149.589 22.0703 150.004 22.2872 150.548C22.5064 151.093 22.616 151.751 22.616 152.521C22.616 153.296 22.5064 153.959 22.2872 154.508C22.0703 155.054 21.7577 155.472 21.3493 155.76C20.9433 156.049 20.4553 156.193 19.8854 156.193ZM19.8854 155.11C20.3284 155.11 20.6779 154.892 20.934 154.456C21.1925 154.017 21.3217 153.373 21.3217 152.521C21.3217 151.958 21.2628 151.485 21.1452 151.102C21.0275 150.719 20.8614 150.431 20.6468 150.237C20.4322 150.041 20.1784 149.943 19.8854 149.943C19.4447 149.943 19.0964 150.162 18.8403 150.6C18.5842 151.036 18.455 151.677 18.4526 152.521C18.4503 153.086 18.5069 153.562 18.6222 153.947C18.7399 154.332 18.906 154.623 19.1206 154.819C19.3352 155.013 19.5901 155.11 19.8854 155.11Z" fill="black"/>
<path d="M18.7063 201.88C18.1365 201.88 17.6473 201.735 17.239 201.447C16.8329 201.156 16.5203 200.738 16.3011 200.191C16.0842 199.642 15.9758 198.981 15.9758 198.208C15.9781 197.435 16.0877 196.777 16.3045 196.235C16.5237 195.69 16.8364 195.275 17.2424 194.989C17.6508 194.703 18.1388 194.56 18.7063 194.56C19.2739 194.56 19.7619 194.703 20.1703 194.989C20.5786 195.275 20.8913 195.69 21.1081 196.235C21.3273 196.779 21.4369 197.437 21.4369 198.208C21.4369 198.983 21.3273 199.645 21.1081 200.194C20.8913 200.741 20.5786 201.159 20.1703 201.447C19.7642 201.735 19.2762 201.88 18.7063 201.88ZM18.7063 200.796C19.1493 200.796 19.4989 200.578 19.755 200.142C20.0134 199.704 20.1426 199.059 20.1426 198.208C20.1426 197.645 20.0837 197.172 19.9661 196.789C19.8484 196.406 19.6823 196.117 19.4677 195.924C19.2532 195.727 18.9994 195.629 18.7063 195.629C18.2657 195.629 17.9173 195.849 17.6612 196.287C17.4051 196.723 17.2759 197.363 17.2736 198.208C17.2713 198.773 17.3278 199.248 17.4431 199.634C17.5608 200.019 17.7269 200.31 17.9415 200.506C18.1561 200.699 18.411 200.796 18.7063 200.796Z" fill="black"/>
</g>
<defs>
<filter id="filter0_d_2_2522" x="30" y="140" width="30" height="80" filterUnits="userSpaceOnUse" color-interpolation-filters="sRGB">
<feFlood flood-opacity="0" result="BackgroundImageFix"/>
<feColorMatrix in="SourceAlpha" type="matrix" values="0 0 0 0 0 0 0 0 0 0 0 0 0 0 0 0 0 0 127 0" result="hardAlpha"/>
<feOffset/>
<feGaussianBlur stdDeviation="5"/>
<feComposite in2="hardAlpha" operator="out"/>
<feColorMatrix type="matrix" values="0 0 0 0 0 0 0 0 0 0 0 0 0 0 0 0 0 0 0.1 0"/>
<feBlend mode="normal" in2="BackgroundImageFix" result="effect1_dropShadow_2_2522"/>
<feBlend mode="normal" in="SourceGraphic" in2="effect1_dropShadow_2_2522" result="shape"/>
</filter>
<filter id="filter1_d_2_2522" x="72" y="124" width="30" height="96" filterUnits="userSpaceOnUse" color-interpolation-filters="sRGB">
<feFlood flood-opacity="0" result="BackgroundImageFix"/>
<feColorMatrix in="SourceAlpha" type="matrix" values="0 0 0 0 0 0 0 0 0 0 0 0 0 0 0 0 0 0 127 0" result="hardAlpha"/>
<feOffset/>
<feGaussianBlur stdDeviation="5"/>
<feComposite in2="hardAlpha" operator="out"/>
<feColorMatrix type="matrix" values="0 0 0 0 0 0 0 0 0 0 0 0 0 0 0 0 0 0 0.1 0"/>
<feBlend mode="normal" in2="BackgroundImageFix" result="effect1_dropShadow_2_2522"/>
<feBlend mode="normal" in="SourceGraphic" in2="effect1_dropShadow_2_2522" result="shape"/>
</filter>
<filter id="filter2_d_2_2522" x="113" y="124" width="30" height="96" filterUnits="userSpaceOnUse" color-interpolation-filters="sRGB">
<feFlood flood-opacity="0" result="BackgroundImageFix"/>
<feColorMatrix in="SourceAlpha" type="matrix" values="0 0 0 0 0 0 0 0 0 0 0 0 0 0 0 0 0 0 127 0" result="hardAlpha"/>
<feOffset/>
<feGaussianBlur stdDeviation="5"/>
<feComposite in2="hardAlpha" operator="out"/>
<feColorMatrix type="matrix" values="0 0 0 0 0 0 0 0 0 0 0 0 0 0 0 0 0 0 0.1 0"/>
<feBlend mode="normal" in2="BackgroundImageFix" result="effect1_dropShadow_2_2522"/>
<feBlend mode="normal" in="SourceGraphic" in2="effect1_dropShadow_2_2522" result="shape"/>
</filter>
<filter id="filter3_d_2_2522" x="153" y="78" width="30" height="142" filterUnits="userSpaceOnUse" color-interpolation-filters="sRGB">
<feFlood flood-opacity="0" result="BackgroundImageFix"/>
<feColorMatrix in="SourceAlpha" type="matrix" values="0 0 0 0 0 0 0 0 0 0 0 0 0 0 0 0 0 0 127 0" result="hardAlpha"/>
<feOffset/>
<feGaussianBlur stdDeviation="5"/>
<feComposite in2="hardAlpha" operator="out"/>
<feColorMatrix type="matrix" values="0 0 0 0 0 0 0 0 0 0 0 0 0 0 0 0 0 0 0.1 0"/>
<feBlend mode="normal" in2="BackgroundImageFix" result="effect1_dropShadow_2_2522"/>
<feBlend mode="normal" in="SourceGraphic" in2="effect1_dropShadow_2_2522" result="shape"/>
</filter>
<filter id="filter4_d_2_2522" x="194" y="62" width="30" height="158" filterUnits="userSpaceOnUse" color-interpolation-filters="sRGB">
<feFlood flood-opacity="0" result="BackgroundImageFix"/>
<feColorMatrix in="SourceAlpha" type="matrix" values="0 0 0 0 0 0 0 0 0 0 0 0 0 0 0 0 0 0 127 0" result="hardAlpha"/>
<feOffset/>
<feGaussianBlur stdDeviation="5"/>
<feComposite in2="hardAlpha" operator="out"/>
<feColorMatrix type="matrix" values="0 0 0 0 0 0 0 0 0 0 0 0 0 0 0 0 0 0 0.1 0"/>
<feBlend mode="normal" in2="BackgroundImageFix" result="effect1_dropShadow_2_2522"/>
<feBlend mode="normal" in="SourceGraphic" in2="effect1_dropShadow_2_2522" result="shape"/>
</filter>
<filter id="filter5_d_2_2522" x="238" y="94" width="30" height="126" filterUnits="userSpaceOnUse" color-interpolation-filters="sRGB">
<feFlood flood-opacity="0" result="BackgroundImageFix"/>
<feColorMatrix in="SourceAlpha" type="matrix" values="0 0 0 0 0 0 0 0 0 0 0 0 0 0 0 0 0 0 127 0" result="hardAlpha"/>
<feOffset/>
<feGaussianBlur stdDeviation="5"/>
<feComposite in2="hardAlpha" operator="out"/>
<feColorMatrix type="matrix" values="0 0 0 0 0 0 0 0 0 0 0 0 0 0 0 0 0 0 0.1 0"/>
<feBlend mode="normal" in2="BackgroundImageFix" result="effect1_dropShadow_2_2522"/>
<feBlend mode="normal" in="SourceGraphic" in2="effect1_dropShadow_2_2522" result="shape"/>
</filter>
<filter id="filter6_d_2_2522" x="277.305" y="77.5051" width="30.7902" height="142.431" filterUnits="userSpaceOnUse" color-interpolation-filters="sRGB">
<feFlood flood-opacity="0" result="BackgroundImageFix"/>
<feColorMatrix in="SourceAlpha" type="matrix" values="0 0 0 0 0 0 0 0 0 0 0 0 0 0 0 0 0 0 127 0" result="hardAlpha"/>
<feOffset/>
<feGaussianBlur stdDeviation="5"/>
<feComposite in2="hardAlpha" operator="out"/>
<feColorMatrix type="matrix" values="0 0 0 0 0 0 0 0 0 0 0 0 0 0 0 0 0 0 0.1 0"/>
<feBlend mode="normal" in2="BackgroundImageFix" result="effect1_dropShadow_2_2522"/>
<feBlend mode="normal" in="SourceGraphic" in2="effect1_dropShadow_2_2522" result="shape"/>
</filter>
<filter id="filter7_d_2_2522" x="319" y="140" width="30" height="80" filterUnits="userSpaceOnUse" color-interpolation-filters="sRGB">
<feFlood flood-opacity="0" result="BackgroundImageFix"/>
<feColorMatrix in="SourceAlpha" type="matrix" values="0 0 0 0 0 0 0 0 0 0 0 0 0 0 0 0 0 0 127 0" result="hardAlpha"/>
<feOffset/>
<feGaussianBlur stdDeviation="5"/>
<feComposite in2="hardAlpha" operator="out"/>
<feColorMatrix type="matrix" values="0 0 0 0 0 0 0 0 0 0 0 0 0 0 0 0 0 0 0.1 0"/>
<feBlend mode="normal" in2="BackgroundImageFix" result="effect1_dropShadow_2_2522"/>
<feBlend mode="normal" in="SourceGraphic" in2="effect1_dropShadow_2_2522" result="shape"/>
</filter>
<filter id="filter8_d_2_2522" x="360" y="62" width="30" height="158" filterUnits="userSpaceOnUse" color-interpolation-filters="sRGB">
<feFlood flood-opacity="0" result="BackgroundImageFix"/>
<feColorMatrix in="SourceAlpha" type="matrix" values="0 0 0 0 0 0 0 0 0 0 0 0 0 0 0 0 0 0 127 0" result="hardAlpha"/>
<feOffset/>
<feGaussianBlur stdDeviation="5"/>
<feComposite in2="hardAlpha" operator="out"/>
<feColorMatrix type="matrix" values="0 0 0 0 0 0 0 0 0 0 0 0 0 0 0 0 0 0 0.1 0"/>
<feBlend mode="normal" in2="BackgroundImageFix" result="effect1_dropShadow_2_2522"/>
<feBlend mode="normal" in="SourceGraphic" in2="effect1_dropShadow_2_2522" result="shape"/>
</filter>
<filter id="filter9_d_2_2522" x="402" y="34" width="30" height="186" filterUnits="userSpaceOnUse" color-interpolation-filters="sRGB">
<feFlood flood-opacity="0" result="BackgroundImageFix"/>
<feColorMatrix in="SourceAlpha" type="matrix" values="0 0 0 0 0 0 0 0 0 0 0 0 0 0 0 0 0 0 127 0" result="hardAlpha"/>
<feOffset/>
<feGaussianBlur stdDeviation="5"/>
<feComposite in2="hardAlpha" operator="out"/>
<feColorMatrix type="matrix" values="0 0 0 0 0 0 0 0 0 0 0 0 0 0 0 0 0 0 0.1 0"/>
<feBlend mode="normal" in2="BackgroundImageFix" result="effect1_dropShadow_2_2522"/>
<feBlend mode="normal" in="SourceGraphic" in2="effect1_dropShadow_2_2522" result="shape"/>
</filter>
<filter id="filter10_d_2_2522" x="442" y="18" width="30" height="202" filterUnits="userSpaceOnUse" color-interpolation-filters="sRGB">
<feFlood flood-opacity="0" result="BackgroundImageFix"/>
<feColorMatrix in="SourceAlpha" type="matrix" values="0 0 0 0 0 0 0 0 0 0 0 0 0 0 0 0 0 0 127 0" result="hardAlpha"/>
<feOffset/>
<feGaussianBlur stdDeviation="5"/>
<feComposite in2="hardAlpha" operator="out"/>
<feColorMatrix type="matrix" values="0 0 0 0 0 0 0 0 0 0 0 0 0 0 0 0 0 0 0.1 0"/>
<feBlend mode="normal" in2="BackgroundImageFix" result="effect1_dropShadow_2_2522"/>
<feBlend mode="normal" in="SourceGraphic" in2="effect1_dropShadow_2_2522" result="shape"/>
</filter>
<filter id="filter11_d_2_2522" x="484" y="0" width="30" height="220" filterUnits="userSpaceOnUse" color-interpolation-filters="sRGB">
<feFlood flood-opacity="0" result="BackgroundImageFix"/>
<feColorMatrix in="SourceAlpha" type="matrix" values="0 0 0 0 0 0 0 0 0 0 0 0 0 0 0 0 0 0 127 0" result="hardAlpha"/>
<feOffset/>
<feGaussianBlur stdDeviation="5"/>
<feComposite in2="hardAlpha" operator="out"/>
<feColorMatrix type="matrix" values="0 0 0 0 0 0 0 0 0 0 0 0 0 0 0 0 0 0 0.1 0"/>
<feBlend mode="normal" in2="BackgroundImageFix" result="effect1_dropShadow_2_2522"/>
<feBlend mode="normal" in="SourceGraphic" in2="effect1_dropShadow_2_2522" result="shape"/>
</filter>
<linearGradient id="paint0_linear_2_2522" x1="46.7798" y1="180.33" x2="0.235884" y2="48.3171" gradientUnits="userSpaceOnUse">
<stop stop-color="#1B59F8"/>
<stop offset="1" stop-color="#1B59F8" stop-opacity="0"/>
</linearGradient>
<linearGradient id="paint1_linear_2_2522" x1="88.7798" y1="172.419" x2="18.7806" y2="15.6765" gradientUnits="userSpaceOnUse">
<stop stop-color="#1B59F8"/>
<stop offset="1" stop-color="#1B59F8" stop-opacity="0"/>
</linearGradient>
<linearGradient id="paint2_linear_2_2522" x1="129.78" y1="172.419" x2="59.7806" y2="15.6765" gradientUnits="userSpaceOnUse">
<stop stop-color="#1B59F8"/>
<stop offset="1" stop-color="#1B59F8" stop-opacity="0"/>
</linearGradient>
<linearGradient id="paint3_linear_2_2522" x1="169.78" y1="149.672" x2="26.8714" y2="-49.6724" gradientUnits="userSpaceOnUse">
<stop stop-color="#1B59F8"/>
<stop offset="1" stop-color="#1B59F8" stop-opacity="0"/>
</linearGradient>
<linearGradient id="paint4_linear_2_2522" x1="210.78" y1="141.76" x2="43.7747" y2="-64.1875" gradientUnits="userSpaceOnUse">
<stop stop-color="#1B59F8"/>
<stop offset="1" stop-color="#1B59F8" stop-opacity="0"/>
</linearGradient>
<linearGradient id="paint5_linear_2_2522" x1="254.78" y1="157.584" x2="137.107" y2="-31.3355" gradientUnits="userSpaceOnUse">
<stop stop-color="#1B59F8"/>
<stop offset="1" stop-color="#1B59F8" stop-opacity="0"/>
</linearGradient>
<linearGradient id="paint6_linear_2_2522" x1="294.485" y1="149.372" x2="149.149" y2="-48.0773" gradientUnits="userSpaceOnUse">
<stop stop-color="#1B59F8"/>
<stop offset="1" stop-color="#1B59F8" stop-opacity="0"/>
</linearGradient>
<linearGradient id="paint7_linear_2_2522" x1="335.78" y1="180.33" x2="289.236" y2="48.3171" gradientUnits="userSpaceOnUse">
<stop stop-color="#1B59F8"/>
<stop offset="1" stop-color="#1B59F8" stop-opacity="0"/>
</linearGradient>
<linearGradient id="paint8_linear_2_2522" x1="376.78" y1="141.76" x2="209.775" y2="-64.1875" gradientUnits="userSpaceOnUse">
<stop stop-color="#1B59F8"/>
<stop offset="1" stop-color="#1B59F8" stop-opacity="0"/>
</linearGradient>
<linearGradient id="paint9_linear_2_2522" x1="418.78" y1="127.914" x2="213.524" y2="-82.5085" gradientUnits="userSpaceOnUse">
<stop stop-color="#1B59F8"/>
<stop offset="1" stop-color="#1B59F8" stop-opacity="0"/>
</linearGradient>
<linearGradient id="paint10_linear_2_2522" x1="458.78" y1="120.003" x2="234.178" y2="-90.0117" gradientUnits="userSpaceOnUse">
<stop stop-color="#1B59F8"/>
<stop offset="1" stop-color="#1B59F8" stop-opacity="0"/>
</linearGradient>
<linearGradient id="paint11_linear_2_2522" x1="500.78" y1="111.102" x2="256.597" y2="-96.6719" gradientUnits="userSpaceOnUse">
<stop stop-color="#1B59F8"/>
<stop offset="1" stop-color="#1B59F8" stop-opacity="0"/>
</linearGradient>
</defs>
</svg>
